<svg xmlns="http://www.w3.org/2000/svg" viewBox="0 0 245.33 423.04">
	<path d="M386.67,192.48a1.35,1.35,0,0,1-1.33-1.33V97.81a1.35,1.35,0,0,1,1.33-1.33H573.33a1.35,1.35,0,0,1,1.33,1.33v93.33a1.35,1.35,0,0,1-1.33,1.33H386.67Zm1.33-2.67H572V99.15H388v90.67Z" transform="translate(-357.33 -12.48)"/>
	<path d="M358.67,136.48a1.33,1.33,0,0,1,0-2.67H601.33a1.33,1.33,0,1,1,0,2.67H358.67Z" transform="translate(-357.33 -12.48)"/>
	<path d="M442.67,99.15a1.35,1.35,0,0,1-1.33-1.33V60.48a1.35,1.35,0,0,1,1.33-1.33h74.67a1.35,1.35,0,0,1,1.33,1.33V97.81a1.35,1.35,0,0,1-1.33,1.33H442.67ZM444,96.48h72V61.81H444V96.48Z" transform="translate(-357.33 -12.48)"/>
	<path d="M480,52.48a1.35,1.35,0,0,1-1.33-1.33V13.81a1.33,1.33,0,1,1,2.67,0V51.15A1.35,1.35,0,0,1,480,52.48Z" transform="translate(-357.33 -12.48)"/>
	<path d="M549.87,435.52a1.34,1.34,0,0,1-1.22-.76c-27.51-65.48-33.14-208.46-33.14-243.16a1.33,1.33,0,1,1,2.67,0c0,51.29,8.28,183.45,32.9,242.07a1.33,1.33,0,0,1-.75,1.73l-0.24.11A0.91,0.91,0,0,1,549.87,435.52Z" transform="translate(-357.33 -12.48)"/>
	<path d="M404.91,435.52a1.4,1.4,0,0,1-.45-0.09,1.3,1.3,0,0,1-.78-0.72,1.36,1.36,0,0,1,0-1.07c24.6-58.54,32.88-190.73,32.88-242a1.33,1.33,0,0,1,1.33-1.33,1.37,1.37,0,0,1,1.33,1.33c0,34.7-5.62,177.66-33.12,243.12A1.35,1.35,0,0,1,404.91,435.52Z" transform="translate(-357.33 -12.48)"/>
</svg>
