<svg xmlns="http://www.w3.org/2000/svg" width="18.57" height="18.562" viewBox="0 0 18.57 18.562">
  <defs>
    <style>
      .cls-1 {
        fill-rule: evenodd;
      }
    </style>
  </defs>
  <path id="facebook.svg" class="cls-1" d="M1456.23,695.3h-8.89a1.026,1.026,0,0,1-1.03-1.024V677.761a1.026,1.026,0,0,1,1.03-1.024h16.51a1.026,1.026,0,0,1,1.03,1.024v16.515a1.026,1.026,0,0,1-1.03,1.024h-4.73v-7.189h2.41l0.36-2.8h-2.77v-1.788a1.164,1.164,0,0,1,1.39-1.364h1.48V679.65a19.655,19.655,0,0,0-2.16-.11,3.373,3.373,0,0,0-3.6,3.7v2.065h-2.42v2.8h2.42V695.3h0Z" transform="translate(-1446.31 -676.75)"/>
</svg>
