<svg xmlns="http://www.w3.org/2000/svg" width="20.54" height="20.562" viewBox="0 0 20.54 20.562">
  <defs>
    <style>
      .cls-1 {
        fill-rule: evenodd;
      }
    </style>
  </defs>
  <path id="instagram.svg" class="cls-1" d="M1496.39,676.226c-2.79,0-3.14.012-4.23,0.062a7.637,7.637,0,0,0-2.5.478,5.021,5.021,0,0,0-1.81,1.185,4.9,4.9,0,0,0-1.19,1.819,7.647,7.647,0,0,0-.48,2.494c-0.05,1.1-.06,1.446-0.06,4.236s0.01,3.14.06,4.236a7.629,7.629,0,0,0,.48,2.493,4.894,4.894,0,0,0,1.19,1.82,5.034,5.034,0,0,0,1.81,1.185,7.637,7.637,0,0,0,2.5.478c1.09,0.05,1.44.062,4.23,0.062s3.14-.012,4.24-0.062a7.516,7.516,0,0,0,2.49-.478,4.985,4.985,0,0,0,1.82-1.185,4.894,4.894,0,0,0,1.19-1.82,7.629,7.629,0,0,0,.48-2.493c0.05-1.1.06-1.446,0.06-4.236s-0.01-3.14-.06-4.236a7.647,7.647,0,0,0-.48-2.494,4.9,4.9,0,0,0-1.19-1.819,4.973,4.973,0,0,0-1.82-1.185,7.516,7.516,0,0,0-2.49-.478C1499.53,676.238,1499.18,676.226,1496.39,676.226Zm0,1.851c2.75,0,3.07.011,4.16,0.06a5.623,5.623,0,0,1,1.9.354,3.335,3.335,0,0,1,1.95,1.95,5.771,5.771,0,0,1,.36,1.907c0.05,1.084.06,1.409,0.06,4.152s-0.01,3.069-.06,4.151a5.772,5.772,0,0,1-.36,1.908,3.335,3.335,0,0,1-1.95,1.95,5.623,5.623,0,0,1-1.9.354c-1.09.049-1.41,0.06-4.16,0.06s-3.06-.011-4.15-0.06a5.623,5.623,0,0,1-1.9-.354,3.23,3.23,0,0,1-1.19-.768,3.084,3.084,0,0,1-.76-1.182,5.517,5.517,0,0,1-.36-1.908c-0.05-1.082-.06-1.408-0.06-4.151s0.01-3.068.06-4.152a5.515,5.515,0,0,1,.36-1.907,3.084,3.084,0,0,1,.76-1.182,3.23,3.23,0,0,1,1.19-.768,5.623,5.623,0,0,1,1.9-.354C1493.33,678.088,1493.65,678.077,1496.39,678.077Zm0,3.147a5.276,5.276,0,1,0,5.28,5.276A5.273,5.273,0,0,0,1496.39,681.224Zm0,8.7a3.424,3.424,0,1,1,3.43-3.424A3.421,3.421,0,0,1,1496.39,689.924Zm6.72-8.908a1.23,1.23,0,1,1-1.23-1.233A1.231,1.231,0,0,1,1503.11,681.016Z" transform="translate(-1486.12 -676.219)"/>
</svg>
