<svg xmlns="http://www.w3.org/2000/svg" viewBox="0 0 344.27 422.67">
	<path d="M127.73,161.91c-41,0-72.27-75.53-72.27-113.33a72.27,72.27,0,1,1,144.53,0c0,21.08-8.54,50.35-21.25,72.83C170.2,136.53,152.2,161.91,127.73,161.91Zm0-182.93A69,69,0,0,0,78.68-.48,69,69,0,0,0,58.13,48.57c0,19.68,7.94,46.83,20.24,69.19,19.85,36.09,39.45,41.48,49.36,41.48s29.57-5.34,49.35-41.11c12.49-22.58,20.25-49.24,20.25-69.56A69,69,0,0,0,176.79-.48,69,69,0,0,0,127.73-21Z" transform="translate(45.33 23.69)"/>
	<rect x="170.73" y="206.45" width="2.67" height="84.8"/>
	<path d="M127.73,399A926.34,926.34,0,0,1-44.15,383.29l-1.18-.3V296.84c0-47.41,35.94-90.68,93.81-112.93l0.28-.11,0.49-.21L126.8,297l77.56-113.43,0.65,0.28,0.16,0.06C234,194.86,258,211.21,274.38,231.21c16.06,19.58,24.55,42.28,24.55,65.63V383l-1.2.3C242.78,393.88,185.55,399,127.73,399ZM41.53,189.59C-11,211.4-42.67,252.86-42.67,297.77V381l6.57,1.19c51.57,9.38,106.69,14.13,163.83,14.13S239,391.55,290.56,382.18l5.57-1.19V296.84c0-43.93-31.6-84.36-84.08-107.14L206,187.07,126.71,302.28,47.52,187.1Z" transform="translate(45.33 23.69)"/>
</svg>
