<svg xmlns="http://www.w3.org/2000/svg" viewBox="0 0 811.89 715.77">
	<path d="M342,629.28a2.51,2.51,0,0,1-2.18-1.24L260.89,491.31a2.57,2.57,0,0,1,0-2.57l78.91-136.67a2.55,2.55,0,0,1,2.2-1.27H499.87a2.51,2.51,0,0,1,2.18,1.24L581,488.77a2.51,2.51,0,0,1,0,2.54L502.07,628a2.52,2.52,0,0,1-2.2,1.27H342ZM266,490L343.48,624.2H498.41L575.88,490,498.41,355.88H343.48Z" transform="translate(-15 -132.15)"/><path d="M102.82,492.58a2.54,2.54,0,1,1,0-5.08H263.09a2.54,2.54,0,0,1,0,5.08H102.82Z" transform="translate(-15 -132.15)"/><path d="M60.18,535.23A45.19,45.19,0,1,1,105.35,490,45.24,45.24,0,0,1,60.18,535.23Zm0-85.29a40.11,40.11,0,1,0,40.1,40.1A40.14,40.14,0,0,0,60.18,449.94Z" transform="translate(-15 -132.15)"/><path d="M578.8,492.58a2.51,2.51,0,0,1-2.54-2.54,2.54,2.54,0,0,1,2.54-2.54H739.09a2.54,2.54,0,0,1,0,5.08H578.8Z" transform="translate(-15 -132.15)"/><path d="M781.7,535.23A45.19,45.19,0,1,1,826.89,490,45.23,45.23,0,0,1,781.7,535.23Zm0-85.29A40.11,40.11,0,1,0,821.81,490,40.14,40.14,0,0,0,781.7,449.94Z" transform="translate(-15 -132.15)"/><path d="M342.26,355.75a2.56,2.56,0,0,1-2.23-1.28L260.11,215.56a2.51,2.51,0,0,1-.25-1.93A2.46,2.46,0,0,1,261,212.1a2.53,2.53,0,0,1,3.46.91L344.43,352a2.53,2.53,0,0,1-.92,3.45A2.46,2.46,0,0,1,342.26,355.75Z" transform="translate(-15 -132.15)"/><path d="M241,222.51a45.18,45.18,0,1,1,45.18-45.18A45.23,45.23,0,0,1,241,222.51Zm0-85.28a40.1,40.1,0,1,0,40.1,40.1A40.14,40.14,0,0,0,241,137.23Z" transform="translate(-15 -132.15)"/><path d="M579.59,768.35a2.56,2.56,0,0,1-2.23-1.28L497.42,628.13a2.55,2.55,0,0,1,.93-3.48,2.48,2.48,0,0,1,1.23-.32,2.6,2.6,0,0,1,2.26,1.29l79.93,138.91a2.55,2.55,0,0,1-.93,3.48A2.51,2.51,0,0,1,579.59,768.35Z" transform="translate(-15 -132.15)"/><path d="M600.83,847.93A45.18,45.18,0,1,1,646,802.75,45.23,45.23,0,0,1,600.83,847.93Zm0-85.28a40.1,40.1,0,1,0,40.12,40.1A40.14,40.14,0,0,0,600.83,762.65Z" transform="translate(-15 -132.15)"/><path d="M500.54,356.28a2.56,2.56,0,0,1-2.44-1.88,2.51,2.51,0,0,1,.27-1.94l80.84-138.39a2.55,2.55,0,0,1,2.21-1.26,2.54,2.54,0,0,1,2.43,1.88,2.51,2.51,0,0,1-.27,1.94L502.74,355A2.53,2.53,0,0,1,500.54,356.28Z" transform="translate(-15 -132.15)"/><path d="M602.92,223.72a45.18,45.18,0,1,1,45.2-45.18A45.24,45.24,0,0,1,602.92,223.72Zm0-85.28A40.1,40.1,0,1,0,643,178.54,40.15,40.15,0,0,0,602.92,138.44Z" transform="translate(-15 -132.15)"/><path d="M260.46,767.28a2.37,2.37,0,0,1-1.22-.33,2.52,2.52,0,0,1-1.22-1.57,2.45,2.45,0,0,1,.26-1.89l80.85-138.42a2.55,2.55,0,0,1,2.21-1.28,2.35,2.35,0,0,1,1.22.34,2.52,2.52,0,0,1,1.23,1.57,2.45,2.45,0,0,1-.26,1.89L262.68,766A2.57,2.57,0,0,1,260.46,767.28Z" transform="translate(-15 -132.15)"/><path d="M239,846.72a45.18,45.18,0,1,1,45.18-45.18A45.23,45.23,0,0,1,239,846.72Zm0-85.26a40.1,40.1,0,1,0,40.1,40.1A40.14,40.14,0,0,0,239,761.46Z" transform="translate(-15 -132.15)"/>
</svg>
