<svg id="Layer_1" data-name="Layer 1" xmlns="http://www.w3.org/2000/svg" viewBox="0 0 413 448"><title>programm_1</title><path d="M548.25,84.47L469.45,130a3.5,3.5,0,1,0,3.5,6.06l78.81-45.5a3.5,3.5,0,1,0-3.5-6.06h0ZM281.5,113.31l8.08,1.83a1.9,1.9,0,0,1,1.4,1.24l2.22,8.63a1.35,1.35,0,0,0,2.61,0l2.22-8.63a1.9,1.9,0,0,1,1.4-1.24l8.08-1.83a1.35,1.35,0,0,0,0-2.61l-8.08-1.83a1.91,1.91,0,0,1-1.4-1.24L295.8,99a1.36,1.36,0,0,0-2.61,0L291,107.63a1.91,1.91,0,0,1-1.4,1.24l-8.08,1.83a1.35,1.35,0,0,0,0,2.61h0Zm36-40.7,16.16,3.65a3.79,3.79,0,0,1,2.79,2.48L340.89,96a2.7,2.7,0,0,0,5.21,0l4.44-17.26a3.79,3.79,0,0,1,2.79-2.48l16.17-3.65a2.71,2.71,0,0,0,0-5.22l-16.17-3.65a3.8,3.8,0,0,1-2.79-2.49L346.11,44a2.71,2.71,0,0,0-5.21,0l-4.45,17.27a3.8,3.8,0,0,1-2.79,2.49l-16.16,3.65a2.7,2.7,0,0,0,0,5.22h0Zm347.33,28.83L640.32,59l-24.5-42.44,12.12-7,49,84.87Zm-30.32,17.5-3.5-6.06L610,76.5,585.5,34.06l24.25-14,24.5,42.44,24.5,42.43ZM391.07,243.31l-35-60.63-6.06,3.5,35,60.63-24.25,14-10.5-18.19-7-12.12-17.5-30.32,230.36-133,35,60.63,6.06-3.5-35-60.63,24.25-14L603.94,80l17.5,30.31Zm78.43,67.92-31.61-12.64,31.61-77.7v90.34ZM290.11,268.15l-7-12.12,50.54-28.18,7,12.12ZM476.5,220.89l31.61,77.7L476.5,311.23V220.89ZM630.5,0L606.25,14,575.94,31.5l7,12.12-266.74,154,14,24.16L273.5,253.38l14,24.25L344.15,246l14,24.34,109.28-63.09-81.72,200.9a3.48,3.48,0,0,0,1.92,4.56A3.4,3.4,0,0,0,389,413a3.5,3.5,0,0,0,3.24-2.18l43-105.75,34.24,13.7V444.5a3.5,3.5,0,0,0,7,0V318.77l34.24-13.7,43,105.75A3.49,3.49,0,0,0,557,413a3.36,3.36,0,0,0,1.32-.26,3.49,3.49,0,0,0,1.93-4.56L476.42,202.12l148.52-85.75,7,12.12,36.38-21L686.5,97Z" transform="translate(-273.5 0)"/></svg>