<svg id="Layer_1" data-name="Layer 1" xmlns="http://www.w3.org/2000/svg" viewBox="0 0 754.53 448"><title>programm_3</title><path d="M480,341.89c-218.61,0-365.47-67.06-365.47-129.68,0-48.81,89.34-100.25,232.21-120.58a125.19,125.19,0,0,0-8.21,44c0,35.37,70.74,53.05,141.47,53.05s141.47-17.68,141.47-53.05a124,124,0,0,0-8.37-44c143,20.34,232.37,71.79,232.37,120.62,0,62.63-146.86,129.68-365.47,129.68h0Zm365.47-94.32c0,62.63-146.86,129.68-365.47,129.68S114.53,310.2,114.53,247.58v-0.15C156.26,308.52,304.07,353.68,480,353.68s323.74-45.17,365.47-106.26v0.15ZM480,11.79c69.09,0,129.68,57.85,129.68,123.79,0,22.75-58.18,41.26-129.68,41.26s-129.68-18.51-129.68-41.26C350.32,68.47,409.7,11.79,480,11.79h0ZM607.61,79.1C584.86,33.75,536.35,0,480,0,423.45,0,374.79,33.45,352.14,79.13,206.76,98.78,102.74,150.92,102.74,212.21v35.37c0,51.08,72.21,95.82,180.43,120.7l-38.24,71a5.89,5.89,0,1,0,10.37,5.59l39.86-74c54.63,11.54,117.67,18.16,184.85,18.16s130.21-6.61,184.85-18.16l39.86,74a5.87,5.87,0,0,0,5.19,3.1,6,6,0,0,0,2.79-.71,5.89,5.89,0,0,0,2.39-8l-38.24-71c108.22-24.88,180.43-69.62,180.43-120.7V212.21c0-61.33-104.14-113.49-249.65-133.11h0ZM485.89,47.16c49.59,0,88.42,38.83,88.42,88.42a5.89,5.89,0,1,0,11.79,0c0-56.2-44-100.21-100.21-100.21a5.89,5.89,0,1,0,0,11.79h0Z" transform="translate(-102.74)"/></svg>