<svg xmlns="http://www.w3.org/2000/svg" viewBox="0 0 604.54 604.56">
	<path d="M847.94,588c-22.06,0-49-13.79-72.12-36.89-34.94-34.94-47.13-77.51-27.74-96.9L940.68,261.61,954,254.43q0.73,1.69,1.49,3.37l-10.68,5.75a15,15,0,0,0-3.5,2.6L750.7,456.79c-17.64,17.64-5.19,58.77,27.74,91.7,22,22,48.71,35.7,69.63,35.7,11.66,0,18.44-4.33,22.07-8l190.64-190.65a15,15,0,0,0,2.6-3.5l5.75-10.68q1.68,0.77,3.37,1.49l-7.19,13.35L872.73,578.84c-6.07,6.07-14.41,9.16-24.78,9.16h0Z" transform="translate(-622.25 -100.12)"/><path d="M1112.24,704.68a1.78,1.78,0,0,1-1.3-.54l-122-122a1.83,1.83,0,0,1-.51-1.6l11.1-66.57a1.84,1.84,0,0,1,.51-1l22.19-22.19a1.83,1.83,0,0,1,1-.51l66.57-11.1,0.3,0a1.85,1.85,0,0,1,1.3.54l122,122a1.84,1.84,0,0,1,0,2.6l-99.85,99.85A1.78,1.78,0,0,1,1112.24,704.68Zm-28-220.69a15,15,0,0,0-2.47.2l-52.7,8.79c-3.08.51-4.43,0.48-8.14,4.19l-14.56,14.56c-2.21,2.21-4.19,2.83-4.19,8.14l-8.79,52.7c-1.27,7.33-2.25,6.64,4.19,13.07l104,104c2.81,2.81,6.72,8.25,10.7,8.25s7.7-5.43,10.51-8.25l76-76c10.78-11.55,10.28-10.38,0-21.21l-104-104C1092,485.54,1090.67,482.72,1084.27,484Z" transform="translate(-622.25 -100.12)"/><path d="M1133.09,195.67a1.78,1.78,0,0,1-1.3-.54,1.84,1.84,0,0,1,0-2.6l41.67-41.67a1.85,1.85,0,0,1,2.6,0,1.84,1.84,0,0,1,0,2.6l-41.67,41.67A1.78,1.78,0,0,1,1133.09,195.67Z" transform="translate(-622.25 -100.12)"/><path d="M1149.47,339.84c-35,0-75.8-19.91-109.14-53.25-26.75-26.75-44.87-58.06-51-88.16-5.69-27.85-.38-51.64,15-67l25-25c4.29-4.29,10-6.37,17.6-6.37,18.84,0,46.51,13,75.85,35.28l-2.6,2.6c-33.41-25.27-59.89-34.49-73.17-34.49-6.31,0-11.38,1.88-15.08,5.57-8.85,8.85-7,26,5.34,50.95,8.26,16.64,24.62,43,55.67,74,45.76,45.76,89,66.6,109.87,66.6,6.33,0,11.42-1.88,15.12-5.58,7.75-7.74,7.36-21.4-1.17-41.73-4.43-10.55-12.71-26.62-27.75-46.52l2.61-2.61c32,42,43.7,78.67,28.91,93.46l-25,25c-11.25,11.25-27.15,17.19-46,17.19h0Zm-149.1-197.7c-22.45,34.17-4.15,95.15,42.56,141.86,32.18,32.18,73,52.18,106.6,52.18,13.68,0,25.55-3.24,35.26-9.62,4.79-3.15,20.12-18.57,23.87-22.09a86.59,86.59,0,0,1-27.26-4.64c-26.43-9.6-60.68-32.69-91.14-63.16s-54.06-64.53-63.16-91.15a102.31,102.31,0,0,1-4.35-27C1022.74,117.91,1003.17,137.88,1000.37,142.14Z" transform="translate(-622.25 -100.12)"/><path d="M1016.47,357.43a162.89,162.89,0,0,1-47.34-47.56l3.32-1.55a155.15,155.15,0,0,0,45.6,45.8Z" transform="translate(-622.25 -100.12)"/><path d="M723.94,114.22a1.78,1.78,0,0,1,1.3.54l122,122a1.83,1.83,0,0,1,.51,1.6L836.69,305a1.84,1.84,0,0,1-.51,1L814,328.15a1.83,1.83,0,0,1-1,.51l-66.57,11.1-0.3,0a1.85,1.85,0,0,1-1.3-.54l-122-122a1.84,1.84,0,0,1,0-2.6l99.85-99.85A1.78,1.78,0,0,1,723.94,114.22Zm28,220.69a15,15,0,0,0,2.47-.2l52.7-8.79c3.08-.51,4.43-0.48,8.14-4.19l14.56-14.56C832,305,834,304.35,834,299l8.79-52.7c1.27-7.33,2.25-6.64-4.19-13.07l-104-104c-2.81-2.81-6.72-8.25-10.7-8.25s-7.7,5.43-10.51,8.25l-76,76c-10.78,11.55-10.28,10.38,0,21.21l104,104C744.13,333.35,745.51,336.18,751.9,334.91Z" transform="translate(-622.25 -100.12)"/>
</svg>
