<svg xmlns="http://www.w3.org/2000/svg" width="19" height="15.844" viewBox="0 0 19 15.844">
  <defs>
    <style>
      .cls-1 {
        fill-rule: evenodd;
      }
    </style>
  </defs>
  <path id="twitter.svg" class="cls-1" d="M1542.07,680.124a7.624,7.624,0,0,1-2.24.629,4,4,0,0,0,1.71-2.211,7.607,7.607,0,0,1-2.47.969,3.858,3.858,0,0,0-2.85-1.262,3.952,3.952,0,0,0-3.9,4,4.532,4.532,0,0,0,.1.911,10.994,10.994,0,0,1-8.04-4.179,4.128,4.128,0,0,0-.52,2.012,4.036,4.036,0,0,0,1.73,3.328,3.833,3.833,0,0,1-1.77-.5v0.05a3.98,3.98,0,0,0,3.13,3.92,3.653,3.653,0,0,1-1.02.141,3.868,3.868,0,0,1-.74-0.071,3.92,3.92,0,0,0,3.64,2.775,7.676,7.676,0,0,1-4.84,1.713,7.84,7.84,0,0,1-.93-0.055,10.883,10.883,0,0,0,5.98,1.795c7.17,0,11.09-6.092,11.09-11.376,0-.174,0-0.348-0.01-0.518a7.89,7.89,0,0,0,1.95-2.07" transform="translate(-1523.06 -678.25)"/>
</svg>
